:SAMPLES-PER-SECOND 30
:FULLY-SPECIFIED
:DEGREES
844
root  -60.5021 38.122 4.0861 164.751 -76.7776 -178.404
RightUpLeg  11.5769 -3.25531 -1.23299
RightLeg  32.9165 2.52668 1.50588
RightFoot  -25.4037 -0.0209121 1.2065
RightToes  5.82063e-011 0 -3.6325e-017
Spine  23.5402 -0.576552 8.13856
Spine1  8.85562 2.49034 -5.44559
HEad  -38.7099 -19.2855 4.58245
LeftShoulder1  1.15667 0.235142 -29.3019
LeftArm  -0.574823 13.1873 -39.6408
LeftForeArm  14.0751 -12.9121 -7.6231
LeftHand  -0.0229105 9.11559 0.850214
RightShoulder  -0.0987979 -3.77952 26.4008
RightArm  12.5595 12.7139 51.2909
RightForeArm  -0.188485 17.4552 5.05677
RightHand  -0.59984 4.97475 -6.99662
LeftUpLeg  -10.8156 8.7549 3.27566
LeftLeg  -0.480418 17.2707 -4.09257
LeftFoot  22.6137 -1.7323 5.30096
LeftToes  1.68253e-010 -3.2327e-011 -2.69673e-012
845
root  -59.3059 38.0521 4.16235 160.04 -76.1415 -173.59
RightUpLeg  9.65229 -2.96177 1.00734
RightLeg  32.6522 1.35266 0.681212
RightFoot  -25.414 -0.303665 -1.06991
RightToes  5.82063e-011 0 -3.6325e-017
Spine  22.3688 -0.673785 9.73535
Spine1  9.24916 2.40156 -4.61762
HEad  -39.4818 -18.4822 5.09768
LeftShoulder1  1.15957 0.205862 -29.0753
LeftArm  -2.7269 13.401 -41.9102
LeftForeArm  17.8702 -13.2511 -6.95376
LeftHand  -0.00277046 8.13351 1.64866
RightShoulder  -0.0792091 -3.71901 26.4575
RightArm  13.1628 14.431 50.5625
RightForeArm  -0.440949 18.3767 4.97402
RightHand  -0.516752 4.42135 -6.39188
LeftUpLeg  -10.2966 8.10343 4.96964
LeftLeg  -4.02289 9.776 -3.0486
LeftFoot  24.159 1.39385 -5.00501
LeftToes  1.68253e-010 -3.2327e-011 -2.69673e-012
846
root  -58.1888 38.0538 4.24475 157.559 -75.9118 -171.213
RightUpLeg  7.71721 -3.58353 1.89166
RightLeg  33.0219 1.4911 0.788267
RightFoot  -24.6228 -0.425657 -2.22223
RightToes  5.82063e-011 0 -3.6325e-017
Spine  21.6638 -0.846097 10.2113
Spine1  8.7883 1.92476 -3.55518
HEad  -38.9316 -17.1434 5.60807
LeftShoulder1  1.11012 0.371844 -29.3577
LeftArm  -2.72331 13.0982 -42.5986
LeftForeArm  19.9166 -12.8285 -7.12392
LeftHand  -0.0160453 8.70734 1.03683
RightShoulder  -0.0605069 -3.66189 26.4448
RightArm  13.7675 15.1913 50.1376
RightForeArm  -0.688029 18.5476 5.01291
RightHand  -0.575255 5.19742 -6.60516
LeftUpLeg  -10.0787 7.87434 6.3517
LeftLeg  -4.59239 0.373365 -1.59387
LeftFoot  20.9858 4.73057 -16.6519
LeftToes  1.68253e-010 -3.2327e-011 -2.69673e-012
847
root  -57.0481 38.2715 4.33786 158.155 -76.5281 -172.086
RightUpLeg  6.19846 -4.30136 1.68731
RightLeg  32.5788 1.6791 0.901222
RightFoot  -22.5246 -0.401184 -2.54199
RightToes  5.82063e-011 0 -3.6325e-017
Spine  21.2273 -0.999625 9.08051
Spine1  8.80161 1.23092 -2.26026
HEad  -37.8117 -16.3247 6.36084
LeftShoulder1  1.0742 0.467663 -29.2927
LeftArm  -2.38298 11.9546 -43.2145
LeftForeArm  21.9208 -11.644 -7.73919
LeftHand  -0.0201229 8.26168 0.903342
RightShoulder  -0.0837236 -3.73426 26.2637
RightArm  13.3403 14.7457 50.092
RightForeArm  0.0440316 19.0064 4.88806
RightHand  -0.593626 5.46972 -6.64895
LeftUpLeg  -10.5196 8.10957 6.5377
LeftLeg  -0.831048 -2.67458 -1.52763
LeftFoot  17.4836 4.4565 -17.5395
LeftToes  1.68253e-010 -3.2327e-011 -2.69673e-012
848
root  -56.0079 38.6189 4.43252 160.101 -77.606 -174.275
RightUpLeg  5.53533 -4.81465 1.18936
RightLeg  30.5884 1.42696 0.666588
RightFoot  -19.8608 -0.345115 -2.82742
RightToes  5.82063e-011 0 -3.6325e-017
Spine  20.268 -1.08365 8.01709
Spine1  9.07992 0.708846 -1.25383
HEad  -38.8027 -16.947 6.52151
LeftShoulder1  1.06858 0.524385 -29.7907
LeftArm  -2.72739 9.61559 -43.0467
LeftForeArm  25.4873 -9.39914 -8.48965
LeftHand  -0.0518221 7.83808 0.0339643
RightShoulder  -0.0612447 -3.66789 25.7965
RightArm  12.1609 12.5217 49.8056
RightForeArm  -0.137106 19.73 4.75327
RightHand  -0.611721 5.21298 -6.99033
LeftUpLeg  -10.3898 7.65057 5.99487
LeftLeg  4.40378 -3.2109 -0.84044
LeftFoot  13.2326 2.60278 -12.2808
LeftToes  1.68253e-010 -3.2327e-011 -2.69673e-012
849
root  -55.0373 38.9828 4.58046 162.381 -78.4864 -177.083
RightUpLeg  5.60488 -4.81438 0.652407
RightLeg  27.9674 0.976567 0.320069
RightFoot  -16.9818 -0.259794 -2.94117
RightToes  5.82063e-011 0 -3.6325e-017
Spine  19.2665 -1.23166 7.72927
Spine1  9.57233 0.538001 -1.14701
HEad  -35.9265 -17.3501 7.22466
LeftShoulder1  1.0384 0.64235 -30.2141
LeftArm  -3.58639 6.39657 -43.026
LeftForeArm  28.6759 -6.42383 -8.96879
LeftHand  -0.13108 9.08906 -2.4764
RightShoulder  -0.0542289 -3.64768 25.4825
RightArm  11.5628 10.048 49.358
RightForeArm  -0.357445 19.6411 4.73408
RightHand  -0.580704 5.03205 -6.758
LeftUpLeg  -9.49691 7.99931 5.48927
LeftLeg  10.7918 -1.36104 -0.163173
LeftFoot  9.3947 1.46097 -8.33618
LeftToes  1.68253e-010 -3.2327e-011 -2.69673e-012
850
root  -54.1412 39.264 4.78318 163.998 -79.2777 -178.473
RightUpLeg  4.87276 -5.44763 0.155356
RightLeg  25.7034 1.14128 0.350883
RightFoot  -14.4598 -0.176945 -2.8831
RightToes  5.82063e-011 0 -3.6325e-017
Spine  17.7346 -1.63709 7.9255
Spine1  9.44294 0.235282 -1.35423
HEad  -36.1449 -16.8777 7.46928
LeftShoulder1  0.99215 0.726648 -29.6353
LeftArm  -4.61593 5.03728 -44.2401
LeftForeArm  28.1575 -5.10577 -8.58812
LeftHand  -0.075041 8.54758 -1.00414
RightShoulder  -0.0796214 -3.72629 25.6966
RightArm  13.2469 7.77713 48.7261
RightForeArm  -1.66001 18.6253 4.9905
RightHand  -0.619954 5.29946 -7.03341
LeftUpLeg  -9.46562 8.69452 5.39574
LeftLeg  18.7795 -0.374285 0.183053
LeftFoot  5.17208 1.09718 -7.8035
LeftToes  1.68253e-010 -3.2327e-011 -2.69673e-012
851
root  -53.2094 39.4546 5.02144 164.856 -79.9934 -179.033
RightUpLeg  3.91969 -6.60867 -0.340622
RightLeg  23.746 1.88844 0.597606
RightFoot  -12.2361 -0.10319 -2.68553
RightToes  5.82063e-011 0 -3.6325e-017
Spine  16.4532 -2.03926 8.0949
Spine1  9.06787 -0.0805689 -1.40038
HEad  -34.1071 -17.2022 6.91952
LeftShoulder1  0.886368 0.993751 -29.2533
LeftArm  -5.03225 3.7584 -45.1923
LeftForeArm  27.3481 -4.58336 -8.26486
LeftHand  -0.0855349 8.68557 -1.27972
RightShoulder  -0.100897 -3.79006 25.8553
RightArm  16.0947 5.72048 47.8283
RightForeArm  -2.51217 17.3574 5.52009
RightHand  -0.541332 4.45907 -6.64503
LeftUpLeg  -9.03104 7.37153 5.60885
LeftLeg  26.5806 -0.378804 0.122769
LeftFoot  2.22478 0.924518 -7.86531
LeftToes  1.68253e-010 -3.2327e-011 -2.69673e-012
852
root  -52.3034 39.5428 5.29285 163.399 -80.6246 -177.646
RightUpLeg  3.32267 -8.44238 -0.731897
RightLeg  22.1378 3.14696 1.0772
RightFoot  -10.3367 -0.0449954 -2.80918
RightToes  5.82063e-011 0 -3.6325e-017
Spine  15.2754 -2.45119 8.86164
Spine1  9.07945 -0.194832 -1.61246
HEad  -31.3211 -17.3016 5.92199
LeftShoulder1  0.953067 0.754693 -28.6117
LeftArm  -5.47142 2.82552 -46.5719
LeftForeArm  26.0408 -4.63958 -8.01828
LeftHand  -0.0702869 9.00079 -0.634972
RightShoulder  -0.16517 -3.98494 26.2229
RightArm  18.2251 3.66836 46.575
RightForeArm  -2.23901 16.0146 6.16024
RightHand  -0.443799 3.98694 -5.76411
LeftUpLeg  -8.0746 5.78419 6.00795
LeftLeg  34.7992 -0.551969 -0.0660189
LeftFoot  -0.839834 0.642304 -6.89979
LeftToes  1.68253e-010 -3.2327e-011 -2.69673e-012
853
root  -51.3886 39.5358 5.6048 161.72 -80.5089 -175.635
RightUpLeg  1.78744 -9.33651 -0.747952
RightLeg  21.3368 4.25471 1.72388
RightFoot  -8.72525 0.00734564 -2.91266
RightToes  5.82063e-011 0 -3.6325e-017
Spine  14.6192 -2.72381 9.07173
Spine1  8.09439 -0.510784 -0.781974
HEad  -28.5668 -17.245 4.5899
LeftShoulder1  0.697222 1.54253 -29.4057
LeftArm  -4.38254 1.89242 -46.5406
LeftForeArm  24.3404 -5.59059 -8.59011
LeftHand  -0.0443711 8.72463 0.115124
RightShoulder  -0.131293 -3.88371 25.7588
RightArm  21.2015 1.33388 45.5943
RightForeArm  -2.23856 15.2661 6.84329
RightHand  -0.440664 3.69401 -5.88065
LeftUpLeg  -6.72465 5.19826 6.51637
LeftLeg  42.0763 -1.3131 -0.903979
LeftFoot  -3.15675 0.434606 -5.86159
LeftToes  1.68253e-010 -3.2327e-011 -2.69673e-012
854
root  -50.4033 39.4259 5.92844 158.238 -80.1252 -171.726
RightUpLeg  -0.285528 -9.30046 0.00351002
RightLeg  21.1202 4.4499 1.99826
RightFoot  -7.30925 0.0447519 -2.68061
RightToes  5.82063e-011 0 -3.6325e-017
Spine  13.5944 -2.99934 9.80769
Spine1  8.29925 -0.624368 -0.633005
HEad  -27.5457 -16.9901 4.6865
LeftShoulder1  0.602636 1.78285 -28.9703
LeftArm  -3.73518 1.22785 -47.8537
LeftForeArm  23.1144 -7.55668 -8.70621
LeftHand  -0.0120354 8.61554 1.18569
RightShoulder  -0.312857 -4.4333 26.4869
RightArm  24.136 0.290574 44.1562
RightForeArm  -1.94497 14.8232 7.45363
RightHand  -0.37949 2.85397 -5.56719
LeftUpLeg  -4.84938 5.12288 7.51285
LeftLeg  48.0281 -3.03657 -3.22398
LeftFoot  -5.13633 0.412632 -7.04049
LeftToes  1.68253e-010 -3.2327e-011 -2.69673e-012
